<svg width="250" height="58" viewBox="0 0 250 58" fill="none" xmlns="http://www.w3.org/2000/svg">
<path fill-rule="evenodd" clip-rule="evenodd" d="M18.3224 28.3407L27.6261 13.2042L36.9302 28.3407L27.6261 33.8442L18.3224 28.3407Z" fill="black"/>
<path fill-rule="evenodd" clip-rule="evenodd" d="M18.3224 30.9254L27.6261 36.4296L36.9302 30.9254L27.6261 43.9975L18.3224 30.9254Z" fill="black"/>
<path fill-rule="evenodd" clip-rule="evenodd" d="M31.8572 7.06409C30.4122 7.76222 29.0053 8.54156 27.6427 9.39887C26.2716 8.53194 24.8526 7.74878 23.3932 7.05334C24.7554 6.1001 26.1632 5.21831 27.6111 4.41138C29.0676 5.22312 30.4847 6.10845 31.8572 7.06409Z" fill="black"/>
<path fill-rule="evenodd" clip-rule="evenodd" d="M51.7238 3.65363C46.6163 -1.6334 37.3093 -1.00178 27.6106 4.41132C29.0671 5.22307 30.4842 6.10839 31.8567 7.06418C35.6112 5.26665 39.1876 4.30308 42.217 4.30308C44.9257 4.30308 47.1985 5.07195 48.7741 6.70309C52.117 10.1639 51.7197 16.862 48.429 24.2208C49.3511 25.6422 50.2062 27.1091 50.9911 28.6161C56.2204 18.5762 56.8304 8.94052 51.7231 3.65363H51.7238Z" fill="black"/>
<path fill-rule="evenodd" clip-rule="evenodd" d="M31.8571 7.06348C30.4121 7.76146 29.0051 8.54081 27.6426 9.39811C35.1742 14.2216 41.5157 20.7967 46.1635 28.6011C46.9942 27.1841 47.7505 25.7216 48.429 24.2201C46.2277 20.8462 43.7167 17.7002 40.9312 14.8261C38.1572 11.9393 35.118 9.33953 31.8567 7.06348H31.8571Z" fill="black"/>
<path fill-rule="evenodd" clip-rule="evenodd" d="M50.9918 28.6161C50.2088 30.1181 49.355 31.5793 48.4331 32.9942C47.7549 31.4883 46.9975 30.0221 46.1641 28.6021C46.9949 27.1849 47.7511 25.7225 48.4297 24.2211C49.3519 25.6425 50.2069 27.1094 50.9918 28.6164V28.6161Z" fill="black"/>
<path fill-rule="evenodd" clip-rule="evenodd" d="M48.4328 32.993C47.7546 31.4872 46.997 30.0211 46.1637 28.6012C43.8604 32.5009 41.1136 36.1006 37.9821 39.3231C34.8754 42.5668 31.4041 45.413 27.6426 47.8005C29.0036 48.6605 30.4108 49.44 31.8571 50.1352C35.1183 47.8591 38.1574 45.2593 40.9312 42.3726C43.7181 39.5039 46.2304 36.3628 48.4328 32.993Z" fill="black"/>
<path fill-rule="evenodd" clip-rule="evenodd" d="M53.9792 35.855C53.2058 33.3498 52.2055 30.926 50.9917 28.6156C50.2088 30.1174 49.3548 31.5783 48.4331 32.9931C51.7205 40.3484 52.1178 47.039 48.7747 50.4961C45.4317 53.957 38.9651 53.5423 31.8572 50.1354C31.5645 50.3412 31.2719 50.5395 30.9787 50.7342C29.8832 51.465 28.76 52.1502 27.6116 52.7879C32.7742 55.6712 37.8254 57.1979 42.1934 57.1979C46.0279 57.1979 49.3361 56.0215 51.7241 53.5495C55.4609 49.6807 56.259 43.3978 53.9792 35.855Z" fill="black"/>
<path fill-rule="evenodd" clip-rule="evenodd" d="M31.8572 50.1358C31.5644 50.3415 31.2718 50.5399 30.9786 50.7346C29.8832 51.4654 28.76 52.1505 27.6115 52.7882C26.1643 51.98 24.7564 51.0984 23.3932 50.1466C24.8526 49.4511 26.2716 48.668 27.6427 47.801C29.0041 48.661 30.4109 49.4404 31.8572 50.1358Z" fill="black"/>
<path fill-rule="evenodd" clip-rule="evenodd" d="M19.3705 51.763C13.6395 53.6215 9.0591 53.1703 6.47586 50.4959C3.89262 47.822 3.45717 43.0799 5.25231 37.1471C5.68585 35.727 6.2063 34.3372 6.81049 32.9858C5.89229 31.5738 5.04071 30.1164 4.25878 28.6191C3.0462 30.9283 2.0472 33.351 1.27508 35.8548C-1.00782 43.3977 -0.20621 49.6805 3.52679 53.5494C5.86963 55.9709 9.12561 57.2013 13.0228 57.2013C15.6035 57.161 18.1636 56.7157 20.6152 55.8805C23.0362 55.0798 25.3786 54.0443 27.6116 52.7877C26.1644 51.9795 24.7567 51.0979 23.3936 50.146C22.0875 50.7737 20.7438 51.3138 19.371 51.763H19.3705Z" fill="black"/>
<path fill-rule="evenodd" clip-rule="evenodd" d="M23.3933 50.1468C24.8527 49.4514 26.2717 48.6682 27.6428 47.8014C23.8687 45.4167 20.3857 42.5704 17.2685 39.324C14.1327 36.0971 11.3834 32.4912 9.07996 28.5841C8.24282 30.0054 7.48524 31.4754 6.81091 32.9867C9.01692 36.3589 11.5327 39.5024 14.3229 42.3735C17.0948 45.264 20.1327 47.8675 23.3933 50.1468Z" fill="black"/>
<path fill-rule="evenodd" clip-rule="evenodd" d="M9.07978 28.5832C8.24265 30.0045 7.48506 31.4744 6.81073 32.9857C5.89241 31.5738 5.04072 30.1164 4.25867 28.6191C5.04312 27.1097 5.89948 25.6415 6.82459 24.2201C7.49612 25.7174 8.24906 27.174 9.07978 28.5832Z" fill="black"/>
<path fill-rule="evenodd" clip-rule="evenodd" d="M6.47572 6.70278C9.05896 4.0287 13.6396 3.57762 19.3704 5.43967C20.7428 5.88905 22.0864 6.42786 23.393 7.05269C24.7554 6.09959 26.1631 5.21781 27.6111 4.41101C25.3789 3.15286 23.0363 2.11727 20.6148 1.31826C13.3327 -1.04157 7.26383 -0.215245 3.52666 3.65332C1.1388 6.12534 0.00219727 9.55033 0.00219727 13.5203C0.00219727 18.0423 1.4769 23.2752 4.25864 28.6198C5.0431 27.1105 5.89946 25.6423 6.82457 24.2209C3.53359 16.8617 3.13279 10.1636 6.47572 6.70278Z" fill="black"/>
<path fill-rule="evenodd" clip-rule="evenodd" d="M23.3934 7.05273C16.8736 11.6418 11.2519 17.4669 6.82483 24.2204C7.49635 25.7178 8.24929 27.1745 9.08003 28.5836C13.7401 20.7793 20.0965 14.2097 27.6429 9.39855C26.2718 8.53162 24.8528 7.74845 23.3934 7.05302V7.05273Z" fill="black"/>
<path d="M243.653 40.2766V42.6672C243.251 42.912 242.792 43.0391 242.324 43.0348C240.422 43.0835 238.737 41.7713 238.25 39.8627C235.409 43.0854 230.82 43.889 227.119 41.8129C223.417 39.7365 221.55 35.3124 222.59 31.0798C223.63 26.8472 227.309 23.8914 231.518 23.9094C232.718 23.9064 233.907 24.1485 235.016 24.6219C236.126 25.0952 237.133 25.7905 237.984 26.6679V24.277H240.729V37.8856C240.729 39.5869 241.571 40.2766 242.546 40.2766H243.653ZM237.984 33.4722C237.984 29.7651 235.089 26.7597 231.518 26.7597C227.946 26.7597 225.051 29.7651 225.051 33.4722C225.051 37.1794 227.946 40.1845 231.518 40.1845C235.087 40.1801 237.979 37.1776 237.984 33.4722ZM247.115 14.9435H250V43.0363H247.115V14.9435ZM218.266 33.3485C218.267 37.2547 216.032 40.7797 212.598 42.2868C209.163 43.7932 205.201 42.9867 202.553 40.2415V42.6633H199.801V14.3457H202.553V26.4553C205.201 23.7099 209.163 22.9031 212.598 24.41C216.032 25.917 218.267 29.4416 218.266 33.3485ZM215.513 33.3485C215.513 29.5929 212.613 26.5485 209.033 26.5485C205.455 26.5485 202.553 29.5929 202.553 33.3481C202.553 37.1037 205.454 40.1482 209.033 40.1482C209.887 40.1501 210.733 39.9755 211.521 39.6346C212.308 39.2938 213.023 38.7934 213.621 38.1631C214.841 36.8793 215.521 35.1489 215.513 33.3485ZM176.145 33.4726C176.145 28.1911 180.277 23.9094 185.376 23.9094C190.474 23.9094 194.609 28.1911 194.609 33.4726C194.609 38.7545 190.476 43.0363 185.376 43.0363C184.164 43.0371 182.963 42.7905 181.842 42.3103C180.721 41.8299 179.703 41.1255 178.846 40.2375C177.989 39.3489 177.308 38.2941 176.845 37.1334C176.382 35.9726 176.144 34.7286 176.144 33.4726H176.145ZM191.856 33.4726C191.856 29.7655 188.956 26.76 185.376 26.76C181.798 26.76 178.897 29.7655 178.897 33.473C178.897 37.1801 181.798 40.1855 185.376 40.1855C188.953 40.1812 191.852 37.1783 191.856 33.4726ZM162.296 27.7607V28.5933C162.342 35.8055 157.32 41.9323 150.565 42.9042C143.809 43.8762 137.423 39.3904 135.648 32.4268C133.872 25.4637 137.26 18.1884 143.561 15.4348C149.861 12.6806 157.116 15.3046 160.504 21.5631L158.099 22.997C155.539 18.2129 150.098 16.0689 145.204 17.9154C140.309 19.7625 137.379 25.0652 138.259 30.483C139.139 35.9013 143.573 39.8655 148.771 39.8786C153.967 39.8914 158.42 35.9497 159.323 30.5361H148.787V27.7607H162.296ZM168.066 14.9431H170.952V43.0363H168.066V14.9435V14.9431ZM130.562 14.9431V43.0363H124.747V31.7056H113.917V43.0363H108.059V14.9435H113.917V26.2272H124.747V14.9435H130.562V14.9431ZM105.751 20.4216H99.1261V43.0363H93.3789V20.4216H86.71V14.9435H105.751V20.4216ZM74.7305 20.375V26.2746H83.5018V31.7056H74.7305V37.6052H84.979V43.0363H68.823V14.9435H84.979V20.3743H74.7305V20.375Z" fill="black"/>
</svg>
