<svg width="537" height="506" viewBox="0 0 537 506" fill="none" xmlns="http://www.w3.org/2000/svg">
<g clip-path="url(#clip0_258_90)">
<path d="M268 431C385.084 431 480 405.256 480 373.5C480 341.744 385.084 316 268 316C150.916 316 56 341.744 56 373.5C56 405.256 150.916 431 268 431Z" fill="#FF7B53"/>
<path d="M367 348C370.333 344.333 375 336.2 367 333C357 329 349 348 348 348" stroke="white" stroke-width="3" stroke-linecap="round"/>
<path d="M345 357C345.543 361.884 350.918 364.722 355 362" stroke="white" stroke-width="3" stroke-linecap="round"/>
</g>
<path d="M357 452.309V402.204H401.698V352.105H446.39V302H492.482" fill="#FFF278"/>
<path d="M1.38853 3.1357C2.15539 3.1357 2.77706 2.43375 2.77706 1.56785C2.77706 0.701951 2.15539 0 1.38853 0C0.621666 0 0 0.701951 0 1.56785C0 2.43375 0.621666 3.1357 1.38853 3.1357Z" fill="white"/>
<path d="M45.909 3.1357C46.6759 3.1357 47.2976 2.43375 47.2976 1.56785C47.2976 0.701951 46.6759 0 45.909 0C45.1422 0 44.5205 0.701951 44.5205 1.56785C44.5205 2.43375 45.1422 3.1357 45.909 3.1357Z" fill="white"/>
<path d="M134.944 3.1357C135.711 3.1357 136.333 2.43375 136.333 1.56785C136.333 0.701951 135.711 0 134.944 0C134.177 0 133.556 0.701951 133.556 1.56785C133.556 2.43375 134.177 3.1357 134.944 3.1357Z" fill="white"/>
<path d="M179.464 3.1357C180.231 3.1357 180.853 2.43375 180.853 1.56785C180.853 0.701951 180.231 0 179.464 0C178.698 0 178.076 0.701951 178.076 1.56785C178.076 2.43375 178.698 3.1357 179.464 3.1357Z" fill="white"/>
<path d="M313.02 3.1357C313.787 3.1357 314.409 2.43375 314.409 1.56785C314.409 0.701951 313.787 0 313.02 0C312.254 0 311.632 0.701951 311.632 1.56785C311.632 2.43375 312.254 3.1357 313.02 3.1357Z" fill="white"/>
<path d="M357.535 3.1357C358.302 3.1357 358.924 2.43375 358.924 1.56785C358.924 0.701951 358.302 0 357.535 0C356.768 0 356.147 0.701951 356.147 1.56785C356.147 2.43375 356.768 3.1357 357.535 3.1357Z" fill="white"/>
<path d="M402.056 3.1357C402.822 3.1357 403.444 2.43375 403.444 1.56785C403.444 0.701951 402.822 0 402.056 0C401.289 0 400.667 0.701951 400.667 1.56785C400.667 2.43375 401.289 3.1357 402.056 3.1357Z" fill="white"/>
<path d="M446.576 3.1357C447.343 3.1357 447.965 2.43375 447.965 1.56785C447.965 0.701951 447.343 0 446.576 0C445.809 0 445.188 0.701951 445.188 1.56785C445.188 2.43375 445.809 3.1357 446.576 3.1357Z" fill="white"/>
<path d="M491.091 3.1357C491.858 3.1357 492.48 2.43375 492.48 1.56785C492.48 0.701951 491.858 0 491.091 0C490.324 0 489.703 0.701951 489.703 1.56785C489.703 2.43375 490.324 3.1357 491.091 3.1357Z" fill="white"/>
<path d="M1.38853 53.4058C2.15539 53.4058 2.77706 52.7039 2.77706 51.838C2.77706 50.9721 2.15539 50.2701 1.38853 50.2701C0.621666 50.2701 0 50.9721 0 51.838C0 52.7039 0.621666 53.4058 1.38853 53.4058Z" fill="white"/>
<path d="M45.909 53.4058C46.6759 53.4058 47.2976 52.7039 47.2976 51.838C47.2976 50.9721 46.6759 50.2701 45.909 50.2701C45.1422 50.2701 44.5205 50.9721 44.5205 51.838C44.5205 52.7039 45.1422 53.4058 45.909 53.4058Z" fill="white"/>
<path d="M90.4241 53.4058C91.1909 53.4058 91.8126 52.7039 91.8126 51.838C91.8126 50.9721 91.1909 50.2701 90.4241 50.2701C89.6572 50.2701 89.0355 50.9721 89.0355 51.838C89.0355 52.7039 89.6572 53.4058 90.4241 53.4058Z" fill="white"/>
<path d="M134.944 53.4058C135.711 53.4058 136.333 52.7039 136.333 51.838C136.333 50.9721 135.711 50.2701 134.944 50.2701C134.177 50.2701 133.556 50.9721 133.556 51.838C133.556 52.7039 134.177 53.4058 134.944 53.4058Z" fill="white"/>
<path d="M179.464 53.4058C180.231 53.4058 180.853 52.7039 180.853 51.838C180.853 50.9721 180.231 50.2701 179.464 50.2701C178.698 50.2701 178.076 50.9721 178.076 51.838C178.076 52.7039 178.698 53.4058 179.464 53.4058Z" fill="white"/>
<path d="M223.98 53.4058C224.746 53.4058 225.368 52.7039 225.368 51.838C225.368 50.9721 224.746 50.2701 223.98 50.2701C223.213 50.2701 222.591 50.9721 222.591 51.838C222.591 52.7039 223.213 53.4058 223.98 53.4058Z" fill="white"/>
<path d="M268.5 53.4058C269.267 53.4058 269.889 52.7039 269.889 51.838C269.889 50.9721 269.267 50.2701 268.5 50.2701C267.733 50.2701 267.112 50.9721 267.112 51.838C267.112 52.7039 267.733 53.4058 268.5 53.4058Z" fill="white"/>
<path d="M313.02 53.4058C313.787 53.4058 314.409 52.7039 314.409 51.838C314.409 50.9721 313.787 50.2701 313.02 50.2701C312.254 50.2701 311.632 50.9721 311.632 51.838C311.632 52.7039 312.254 53.4058 313.02 53.4058Z" fill="white"/>
<path d="M357.535 53.4058C358.302 53.4058 358.924 52.7039 358.924 51.838C358.924 50.9721 358.302 50.2701 357.535 50.2701C356.768 50.2701 356.147 50.9721 356.147 51.838C356.147 52.7039 356.768 53.4058 357.535 53.4058Z" fill="white"/>
<path d="M402.056 53.4058C402.822 53.4058 403.444 52.7039 403.444 51.838C403.444 50.9721 402.822 50.2701 402.056 50.2701C401.289 50.2701 400.667 50.9721 400.667 51.838C400.667 52.7039 401.289 53.4058 402.056 53.4058Z" fill="white"/>
<path d="M446.576 53.4058C447.343 53.4058 447.965 52.7039 447.965 51.838C447.965 50.9721 447.343 50.2701 446.576 50.2701C445.809 50.2701 445.188 50.9721 445.188 51.838C445.188 52.7039 445.809 53.4058 446.576 53.4058Z" fill="white"/>
<path d="M491.091 53.4058C491.858 53.4058 492.48 52.7039 492.48 51.838C492.48 50.9721 491.858 50.2701 491.091 50.2701C490.324 50.2701 489.703 50.9721 489.703 51.838C489.703 52.7039 490.324 53.4058 491.091 53.4058Z" fill="white"/>
<path d="M535.612 53.4058C536.378 53.4058 537 52.7039 537 51.838C537 50.9721 536.378 50.2701 535.612 50.2701C534.845 50.2701 534.223 50.9721 534.223 51.838C534.223 52.7039 534.845 53.4058 535.612 53.4058Z" fill="white"/>
<path d="M45.909 103.67C46.6759 103.67 47.2976 102.968 47.2976 102.102C47.2976 101.236 46.6759 100.534 45.909 100.534C45.1422 100.534 44.5205 101.236 44.5205 102.102C44.5205 102.968 45.1422 103.67 45.909 103.67Z" fill="white"/>
<path d="M90.4241 103.67C91.1909 103.67 91.8126 102.968 91.8126 102.102C91.8126 101.236 91.1909 100.534 90.4241 100.534C89.6572 100.534 89.0355 101.236 89.0355 102.102C89.0355 102.968 89.6572 103.67 90.4241 103.67Z" fill="white"/>
<path d="M134.944 103.67C135.711 103.67 136.333 102.968 136.333 102.102C136.333 101.236 135.711 100.534 134.944 100.534C134.177 100.534 133.556 101.236 133.556 102.102C133.556 102.968 134.177 103.67 134.944 103.67Z" fill="white"/>
<path d="M179.464 103.67C180.231 103.67 180.853 102.968 180.853 102.102C180.853 101.236 180.231 100.534 179.464 100.534C178.698 100.534 178.076 101.236 178.076 102.102C178.076 102.968 178.698 103.67 179.464 103.67Z" fill="white"/>
<path d="M223.98 103.67C224.746 103.67 225.368 102.968 225.368 102.102C225.368 101.236 224.746 100.534 223.98 100.534C223.213 100.534 222.591 101.236 222.591 102.102C222.591 102.968 223.213 103.67 223.98 103.67Z" fill="white"/>
<path d="M268.5 103.67C269.267 103.67 269.889 102.968 269.889 102.102C269.889 101.236 269.267 100.534 268.5 100.534C267.733 100.534 267.112 101.236 267.112 102.102C267.112 102.968 267.733 103.67 268.5 103.67Z" fill="white"/>
<path d="M313.02 103.67C313.787 103.67 314.409 102.968 314.409 102.102C314.409 101.236 313.787 100.534 313.02 100.534C312.254 100.534 311.632 101.236 311.632 102.102C311.632 102.968 312.254 103.67 313.02 103.67Z" fill="white"/>
<path d="M357.535 103.67C358.302 103.67 358.924 102.968 358.924 102.102C358.924 101.236 358.302 100.534 357.535 100.534C356.768 100.534 356.147 101.236 356.147 102.102C356.147 102.968 356.768 103.67 357.535 103.67Z" fill="white"/>
<path d="M402.056 103.67C402.822 103.67 403.444 102.968 403.444 102.102C403.444 101.236 402.822 100.534 402.056 100.534C401.289 100.534 400.667 101.236 400.667 102.102C400.667 102.968 401.289 103.67 402.056 103.67Z" fill="white"/>
<path d="M446.576 103.67C447.343 103.67 447.965 102.968 447.965 102.102C447.965 101.236 447.343 100.534 446.576 100.534C445.809 100.534 445.188 101.236 445.188 102.102C445.188 102.968 445.809 103.67 446.576 103.67Z" fill="white"/>
<path d="M491.091 103.67C491.858 103.67 492.48 102.968 492.48 102.102C492.48 101.236 491.858 100.534 491.091 100.534C490.324 100.534 489.703 101.236 489.703 102.102C489.703 102.968 490.324 103.67 491.091 103.67Z" fill="white"/>
<path d="M535.612 103.67C536.378 103.67 537 102.968 537 102.102C537 101.236 536.378 100.534 535.612 100.534C534.845 100.534 534.223 101.236 534.223 102.102C534.223 102.968 534.845 103.67 535.612 103.67Z" fill="white"/>
<path d="M45.909 153.939C46.6759 153.939 47.2976 153.237 47.2976 152.372C47.2976 151.506 46.6759 150.804 45.909 150.804C45.1422 150.804 44.5205 151.506 44.5205 152.372C44.5205 153.237 45.1422 153.939 45.909 153.939Z" fill="white"/>
<path d="M90.4241 153.939C91.1909 153.939 91.8126 153.237 91.8126 152.372C91.8126 151.506 91.1909 150.804 90.4241 150.804C89.6572 150.804 89.0355 151.506 89.0355 152.372C89.0355 153.237 89.6572 153.939 90.4241 153.939Z" fill="white"/>
<path d="M134.944 153.939C135.711 153.939 136.333 153.237 136.333 152.372C136.333 151.506 135.711 150.804 134.944 150.804C134.177 150.804 133.556 151.506 133.556 152.372C133.556 153.237 134.177 153.939 134.944 153.939Z" fill="white"/>
<path d="M179.464 153.939C180.231 153.939 180.853 153.237 180.853 152.372C180.853 151.506 180.231 150.804 179.464 150.804C178.698 150.804 178.076 151.506 178.076 152.372C178.076 153.237 178.698 153.939 179.464 153.939Z" fill="white"/>
<path d="M223.98 153.939C224.746 153.939 225.368 153.237 225.368 152.372C225.368 151.506 224.746 150.804 223.98 150.804C223.213 150.804 222.591 151.506 222.591 152.372C222.591 153.237 223.213 153.939 223.98 153.939Z" fill="white"/>
<path d="M268.5 153.939C269.267 153.939 269.889 153.237 269.889 152.372C269.889 151.506 269.267 150.804 268.5 150.804C267.733 150.804 267.112 151.506 267.112 152.372C267.112 153.237 267.733 153.939 268.5 153.939Z" fill="white"/>
<path d="M313.02 153.939C313.787 153.939 314.409 153.237 314.409 152.372C314.409 151.506 313.787 150.804 313.02 150.804C312.254 150.804 311.632 151.506 311.632 152.372C311.632 153.237 312.254 153.939 313.02 153.939Z" fill="white"/>
<path d="M357.535 153.939C358.302 153.939 358.924 153.237 358.924 152.372C358.924 151.506 358.302 150.804 357.535 150.804C356.768 150.804 356.147 151.506 356.147 152.372C356.147 153.237 356.768 153.939 357.535 153.939Z" fill="white"/>
<path d="M402.056 153.939C402.822 153.939 403.444 153.237 403.444 152.372C403.444 151.506 402.822 150.804 402.056 150.804C401.289 150.804 400.667 151.506 400.667 152.372C400.667 153.237 401.289 153.939 402.056 153.939Z" fill="white"/>
<path d="M446.576 153.939C447.343 153.939 447.965 153.237 447.965 152.372C447.965 151.506 447.343 150.804 446.576 150.804C445.809 150.804 445.188 151.506 445.188 152.372C445.188 153.237 445.809 153.939 446.576 153.939Z" fill="white"/>
<path d="M491.091 153.939C491.858 153.939 492.48 153.237 492.48 152.372C492.48 151.506 491.858 150.804 491.091 150.804C490.324 150.804 489.703 151.506 489.703 152.372C489.703 153.237 490.324 153.939 491.091 153.939Z" fill="white"/>
<path d="M535.612 153.939C536.378 153.939 537 153.237 537 152.372C537 151.506 536.378 150.804 535.612 150.804C534.845 150.804 534.223 151.506 534.223 152.372C534.223 153.237 534.845 153.939 535.612 153.939Z" fill="white"/>
<path d="M45.909 204.21C46.6759 204.21 47.2976 203.508 47.2976 202.642C47.2976 201.776 46.6759 201.074 45.909 201.074C45.1422 201.074 44.5205 201.776 44.5205 202.642C44.5205 203.508 45.1422 204.21 45.909 204.21Z" fill="white"/>
<path d="M90.4241 204.21C91.1909 204.21 91.8126 203.508 91.8126 202.642C91.8126 201.776 91.1909 201.074 90.4241 201.074C89.6572 201.074 89.0355 201.776 89.0355 202.642C89.0355 203.508 89.6572 204.21 90.4241 204.21Z" fill="white"/>
<path d="M134.944 204.21C135.711 204.21 136.333 203.508 136.333 202.642C136.333 201.776 135.711 201.074 134.944 201.074C134.177 201.074 133.556 201.776 133.556 202.642C133.556 203.508 134.177 204.21 134.944 204.21Z" fill="white"/>
<path d="M179.464 204.21C180.231 204.21 180.853 203.508 180.853 202.642C180.853 201.776 180.231 201.074 179.464 201.074C178.698 201.074 178.076 201.776 178.076 202.642C178.076 203.508 178.698 204.21 179.464 204.21Z" fill="white"/>
<path d="M223.98 204.21C224.746 204.21 225.368 203.508 225.368 202.642C225.368 201.776 224.746 201.074 223.98 201.074C223.213 201.074 222.591 201.776 222.591 202.642C222.591 203.508 223.213 204.21 223.98 204.21Z" fill="white"/>
<path d="M268.5 204.21C269.267 204.21 269.889 203.508 269.889 202.642C269.889 201.776 269.267 201.074 268.5 201.074C267.733 201.074 267.112 201.776 267.112 202.642C267.112 203.508 267.733 204.21 268.5 204.21Z" fill="white"/>
<path d="M313.02 204.21C313.787 204.21 314.409 203.508 314.409 202.642C314.409 201.776 313.787 201.074 313.02 201.074C312.254 201.074 311.632 201.776 311.632 202.642C311.632 203.508 312.254 204.21 313.02 204.21Z" fill="white"/>
<path d="M357.535 204.21C358.302 204.21 358.924 203.508 358.924 202.642C358.924 201.776 358.302 201.074 357.535 201.074C356.768 201.074 356.147 201.776 356.147 202.642C356.147 203.508 356.768 204.21 357.535 204.21Z" fill="white"/>
<path d="M402.056 204.21C402.822 204.21 403.444 203.508 403.444 202.642C403.444 201.776 402.822 201.074 402.056 201.074C401.289 201.074 400.667 201.776 400.667 202.642C400.667 203.508 401.289 204.21 402.056 204.21Z" fill="white"/>
<path d="M446.576 204.21C447.343 204.21 447.965 203.508 447.965 202.642C447.965 201.776 447.343 201.074 446.576 201.074C445.809 201.074 445.188 201.776 445.188 202.642C445.188 203.508 445.809 204.21 446.576 204.21Z" fill="white"/>
<path d="M491.091 204.21C491.858 204.21 492.48 203.508 492.48 202.642C492.48 201.776 491.858 201.074 491.091 201.074C490.324 201.074 489.703 201.776 489.703 202.642C489.703 203.508 490.324 204.21 491.091 204.21Z" fill="white"/>
<path d="M1.38853 254.473C2.15539 254.473 2.77706 253.772 2.77706 252.906C2.77706 252.04 2.15539 251.338 1.38853 251.338C0.621666 251.338 0 252.04 0 252.906C0 253.772 0.621666 254.473 1.38853 254.473Z" fill="white"/>
<path d="M45.909 254.473C46.6759 254.473 47.2976 253.772 47.2976 252.906C47.2976 252.04 46.6759 251.338 45.909 251.338C45.1422 251.338 44.5205 252.04 44.5205 252.906C44.5205 253.772 45.1422 254.473 45.909 254.473Z" fill="white"/>
<path d="M90.4241 254.473C91.1909 254.473 91.8126 253.772 91.8126 252.906C91.8126 252.04 91.1909 251.338 90.4241 251.338C89.6572 251.338 89.0355 252.04 89.0355 252.906C89.0355 253.772 89.6572 254.473 90.4241 254.473Z" fill="white"/>
<path d="M134.944 254.473C135.711 254.473 136.333 253.772 136.333 252.906C136.333 252.04 135.711 251.338 134.944 251.338C134.177 251.338 133.556 252.04 133.556 252.906C133.556 253.772 134.177 254.473 134.944 254.473Z" fill="white"/>
<path d="M179.464 254.473C180.231 254.473 180.853 253.772 180.853 252.906C180.853 252.04 180.231 251.338 179.464 251.338C178.698 251.338 178.076 252.04 178.076 252.906C178.076 253.772 178.698 254.473 179.464 254.473Z" fill="white"/>
<path d="M223.98 254.473C224.746 254.473 225.368 253.772 225.368 252.906C225.368 252.04 224.746 251.338 223.98 251.338C223.213 251.338 222.591 252.04 222.591 252.906C222.591 253.772 223.213 254.473 223.98 254.473Z" fill="white"/>
<path d="M268.5 254.473C269.267 254.473 269.889 253.772 269.889 252.906C269.889 252.04 269.267 251.338 268.5 251.338C267.733 251.338 267.112 252.04 267.112 252.906C267.112 253.772 267.733 254.473 268.5 254.473Z" fill="white"/>
<path d="M313.02 254.473C313.787 254.473 314.409 253.772 314.409 252.906C314.409 252.04 313.787 251.338 313.02 251.338C312.254 251.338 311.632 252.04 311.632 252.906C311.632 253.772 312.254 254.473 313.02 254.473Z" fill="white"/>
<path d="M357.535 254.473C358.302 254.473 358.924 253.772 358.924 252.906C358.924 252.04 358.302 251.338 357.535 251.338C356.768 251.338 356.147 252.04 356.147 252.906C356.147 253.772 356.768 254.473 357.535 254.473Z" fill="white"/>
<path d="M402.056 254.473C402.822 254.473 403.444 253.772 403.444 252.906C403.444 252.04 402.822 251.338 402.056 251.338C401.289 251.338 400.667 252.04 400.667 252.906C400.667 253.772 401.289 254.473 402.056 254.473Z" fill="white"/>
<path d="M446.576 254.473C447.343 254.473 447.965 253.772 447.965 252.906C447.965 252.04 447.343 251.338 446.576 251.338C445.809 251.338 445.188 252.04 445.188 252.906C445.188 253.772 445.809 254.473 446.576 254.473Z" fill="white"/>
<path d="M491.091 254.473C491.858 254.473 492.48 253.772 492.48 252.906C492.48 252.04 491.858 251.338 491.091 251.338C490.324 251.338 489.703 252.04 489.703 252.906C489.703 253.772 490.324 254.473 491.091 254.473Z" fill="white"/>
<path d="M535.612 254.473C536.378 254.473 537 253.772 537 252.906C537 252.04 536.378 251.338 535.612 251.338C534.845 251.338 534.223 252.04 534.223 252.906C534.223 253.772 534.845 254.473 535.612 254.473Z" fill="white"/>
<path d="M1.38853 304.744C2.15539 304.744 2.77706 304.042 2.77706 303.176C2.77706 302.31 2.15539 301.608 1.38853 301.608C0.621666 301.608 0 302.31 0 303.176C0 304.042 0.621666 304.744 1.38853 304.744Z" fill="white"/>
<path d="M45.909 304.744C46.6759 304.744 47.2976 304.042 47.2976 303.176C47.2976 302.31 46.6759 301.608 45.909 301.608C45.1422 301.608 44.5205 302.31 44.5205 303.176C44.5205 304.042 45.1422 304.744 45.909 304.744Z" fill="white"/>
<path d="M90.4241 304.744C91.1909 304.744 91.8126 304.042 91.8126 303.176C91.8126 302.31 91.1909 301.608 90.4241 301.608C89.6572 301.608 89.0355 302.31 89.0355 303.176C89.0355 304.042 89.6572 304.744 90.4241 304.744Z" fill="white"/>
<path d="M134.944 304.744C135.711 304.744 136.333 304.042 136.333 303.176C136.333 302.31 135.711 301.608 134.944 301.608C134.177 301.608 133.556 302.31 133.556 303.176C133.556 304.042 134.177 304.744 134.944 304.744Z" fill="white"/>
<path d="M179.464 304.744C180.231 304.744 180.853 304.042 180.853 303.176C180.853 302.31 180.231 301.608 179.464 301.608C178.698 301.608 178.076 302.31 178.076 303.176C178.076 304.042 178.698 304.744 179.464 304.744Z" fill="white"/>
<path d="M223.98 304.744C224.746 304.744 225.368 304.042 225.368 303.176C225.368 302.31 224.746 301.608 223.98 301.608C223.213 301.608 222.591 302.31 222.591 303.176C222.591 304.042 223.213 304.744 223.98 304.744Z" fill="white"/>
<path d="M268.5 304.744C269.267 304.744 269.889 304.042 269.889 303.176C269.889 302.31 269.267 301.608 268.5 301.608C267.733 301.608 267.112 302.31 267.112 303.176C267.112 304.042 267.733 304.744 268.5 304.744Z" fill="white"/>
<path d="M313.02 304.744C313.787 304.744 314.409 304.042 314.409 303.176C314.409 302.31 313.787 301.608 313.02 301.608C312.254 301.608 311.632 302.31 311.632 303.176C311.632 304.042 312.254 304.744 313.02 304.744Z" fill="white"/>
<path d="M357.535 304.744C358.302 304.744 358.924 304.042 358.924 303.176C358.924 302.31 358.302 301.608 357.535 301.608C356.768 301.608 356.147 302.31 356.147 303.176C356.147 304.042 356.768 304.744 357.535 304.744Z" fill="white"/>
<path d="M402.056 304.744C402.822 304.744 403.444 304.042 403.444 303.176C403.444 302.31 402.822 301.608 402.056 301.608C401.289 301.608 400.667 302.31 400.667 303.176C400.667 304.042 401.289 304.744 402.056 304.744Z" fill="white"/>
<path d="M446.576 304.744C447.343 304.744 447.965 304.042 447.965 303.176C447.965 302.31 447.343 301.608 446.576 301.608C445.809 301.608 445.188 302.31 445.188 303.176C445.188 304.042 445.809 304.744 446.576 304.744Z" fill="white"/>
<path d="M535.612 304.744C536.378 304.744 537 304.042 537 303.176C537 302.31 536.378 301.608 535.612 301.608C534.845 301.608 534.223 302.31 534.223 303.176C534.223 304.042 534.845 304.744 535.612 304.744Z" fill="white"/>
<path d="M1.38853 355.014C2.15539 355.014 2.77706 354.312 2.77706 353.446C2.77706 352.58 2.15539 351.878 1.38853 351.878C0.621666 351.878 0 352.58 0 353.446C0 354.312 0.621666 355.014 1.38853 355.014Z" fill="white"/>
<path d="M45.909 355.014C46.6759 355.014 47.2976 354.312 47.2976 353.446C47.2976 352.58 46.6759 351.878 45.909 351.878C45.1422 351.878 44.5205 352.58 44.5205 353.446C44.5205 354.312 45.1422 355.014 45.909 355.014Z" fill="white"/>
<path d="M90.4241 355.014C91.1909 355.014 91.8126 354.312 91.8126 353.446C91.8126 352.58 91.1909 351.878 90.4241 351.878C89.6572 351.878 89.0355 352.58 89.0355 353.446C89.0355 354.312 89.6572 355.014 90.4241 355.014Z" fill="white"/>
<path d="M134.944 355.014C135.711 355.014 136.333 354.312 136.333 353.446C136.333 352.58 135.711 351.878 134.944 351.878C134.177 351.878 133.556 352.58 133.556 353.446C133.556 354.312 134.177 355.014 134.944 355.014Z" fill="white"/>
<path d="M179.464 355.014C180.231 355.014 180.853 354.312 180.853 353.446C180.853 352.58 180.231 351.878 179.464 351.878C178.698 351.878 178.076 352.58 178.076 353.446C178.076 354.312 178.698 355.014 179.464 355.014Z" fill="white"/>
<path d="M223.98 355.014C224.746 355.014 225.368 354.312 225.368 353.446C225.368 352.58 224.746 351.878 223.98 351.878C223.213 351.878 222.591 352.58 222.591 353.446C222.591 354.312 223.213 355.014 223.98 355.014Z" fill="white"/>
<path d="M268.5 355.014C269.267 355.014 269.889 354.312 269.889 353.446C269.889 352.58 269.267 351.878 268.5 351.878C267.733 351.878 267.112 352.58 267.112 353.446C267.112 354.312 267.733 355.014 268.5 355.014Z" fill="white"/>
<path d="M313.02 355.014C313.787 355.014 314.409 354.312 314.409 353.446C314.409 352.58 313.787 351.878 313.02 351.878C312.254 351.878 311.632 352.58 311.632 353.446C311.632 354.312 312.254 355.014 313.02 355.014Z" fill="white"/>
<path d="M357.535 355.014C358.302 355.014 358.924 354.312 358.924 353.446C358.924 352.58 358.302 351.878 357.535 351.878C356.768 351.878 356.147 352.58 356.147 353.446C356.147 354.312 356.768 355.014 357.535 355.014Z" fill="white"/>
<path d="M402.056 355.014C402.822 355.014 403.444 354.312 403.444 353.446C403.444 352.58 402.822 351.878 402.056 351.878C401.289 351.878 400.667 352.58 400.667 353.446C400.667 354.312 401.289 355.014 402.056 355.014Z" fill="white"/>
<path d="M491.091 355.014C491.858 355.014 492.48 354.312 492.48 353.446C492.48 352.58 491.858 351.878 491.091 351.878C490.324 351.878 489.703 352.58 489.703 353.446C489.703 354.312 490.324 355.014 491.091 355.014Z" fill="white"/>
<path d="M535.612 355.014C536.378 355.014 537 354.312 537 353.446C537 352.58 536.378 351.878 535.612 351.878C534.845 351.878 534.223 352.58 534.223 353.446C534.223 354.312 534.845 355.014 535.612 355.014Z" fill="white"/>
<path d="M1.38853 405.277C2.15539 405.277 2.77706 404.575 2.77706 403.709C2.77706 402.843 2.15539 402.141 1.38853 402.141C0.621666 402.141 0 402.843 0 403.709C0 404.575 0.621666 405.277 1.38853 405.277Z" fill="white"/>
<path d="M45.909 405.277C46.6759 405.277 47.2976 404.575 47.2976 403.709C47.2976 402.843 46.6759 402.141 45.909 402.141C45.1422 402.141 44.5205 402.843 44.5205 403.709C44.5205 404.575 45.1422 405.277 45.909 405.277Z" fill="white"/>
<path d="M90.4241 405.277C91.1909 405.277 91.8126 404.575 91.8126 403.709C91.8126 402.843 91.1909 402.141 90.4241 402.141C89.6572 402.141 89.0355 402.843 89.0355 403.709C89.0355 404.575 89.6572 405.277 90.4241 405.277Z" fill="white"/>
<path d="M134.944 405.277C135.711 405.277 136.333 404.575 136.333 403.709C136.333 402.843 135.711 402.141 134.944 402.141C134.177 402.141 133.556 402.843 133.556 403.709C133.556 404.575 134.177 405.277 134.944 405.277Z" fill="white"/>
<path d="M179.464 405.277C180.231 405.277 180.853 404.575 180.853 403.709C180.853 402.843 180.231 402.141 179.464 402.141C178.698 402.141 178.076 402.843 178.076 403.709C178.076 404.575 178.698 405.277 179.464 405.277Z" fill="white"/>
<path d="M223.98 405.277C224.746 405.277 225.368 404.575 225.368 403.709C225.368 402.843 224.746 402.141 223.98 402.141C223.213 402.141 222.591 402.843 222.591 403.709C222.591 404.575 223.213 405.277 223.98 405.277Z" fill="white"/>
<path d="M268.5 405.277C269.267 405.277 269.889 404.575 269.889 403.709C269.889 402.843 269.267 402.141 268.5 402.141C267.733 402.141 267.112 402.843 267.112 403.709C267.112 404.575 267.733 405.277 268.5 405.277Z" fill="white"/>
<path d="M313.02 405.277C313.787 405.277 314.409 404.575 314.409 403.709C314.409 402.843 313.787 402.141 313.02 402.141C312.254 402.141 311.632 402.843 311.632 403.709C311.632 404.575 312.254 405.277 313.02 405.277Z" fill="white"/>
<path d="M357.535 405.277C358.302 405.277 358.924 404.575 358.924 403.709C358.924 402.843 358.302 402.141 357.535 402.141C356.768 402.141 356.147 402.843 356.147 403.709C356.147 404.575 356.768 405.277 357.535 405.277Z" fill="white"/>
<path d="M446.576 405.277C447.343 405.277 447.965 404.575 447.965 403.709C447.965 402.843 447.343 402.141 446.576 402.141C445.809 402.141 445.188 402.843 445.188 403.709C445.188 404.575 445.809 405.277 446.576 405.277Z" fill="white"/>
<path d="M491.091 405.277C491.858 405.277 492.48 404.575 492.48 403.709C492.48 402.843 491.858 402.141 491.091 402.141C490.324 402.141 489.703 402.843 489.703 403.709C489.703 404.575 490.324 405.277 491.091 405.277Z" fill="white"/>
<path d="M535.612 405.277C536.378 405.277 537 404.575 537 403.709C537 402.843 536.378 402.141 535.612 402.141C534.845 402.141 534.223 402.843 534.223 403.709C534.223 404.575 534.845 405.277 535.612 405.277Z" fill="white"/>
<path d="M1.38853 455.547C2.15539 455.547 2.77706 454.845 2.77706 453.979C2.77706 453.114 2.15539 452.412 1.38853 452.412C0.621666 452.412 0 453.114 0 453.979C0 454.845 0.621666 455.547 1.38853 455.547Z" fill="white"/>
<path d="M45.909 455.547C46.6759 455.547 47.2976 454.845 47.2976 453.979C47.2976 453.114 46.6759 452.412 45.909 452.412C45.1422 452.412 44.5205 453.114 44.5205 453.979C44.5205 454.845 45.1422 455.547 45.909 455.547Z" fill="white"/>
<path d="M90.4241 455.547C91.1909 455.547 91.8126 454.845 91.8126 453.979C91.8126 453.114 91.1909 452.412 90.4241 452.412C89.6572 452.412 89.0355 453.114 89.0355 453.979C89.0355 454.845 89.6572 455.547 90.4241 455.547Z" fill="white"/>
<path d="M134.944 455.547C135.711 455.547 136.333 454.845 136.333 453.979C136.333 453.114 135.711 452.412 134.944 452.412C134.177 452.412 133.556 453.114 133.556 453.979C133.556 454.845 134.177 455.547 134.944 455.547Z" fill="white"/>
<path d="M179.464 455.547C180.231 455.547 180.853 454.845 180.853 453.979C180.853 453.114 180.231 452.412 179.464 452.412C178.698 452.412 178.076 453.114 178.076 453.979C178.076 454.845 178.698 455.547 179.464 455.547Z" fill="white"/>
<path d="M223.98 455.547C224.746 455.547 225.368 454.845 225.368 453.979C225.368 453.114 224.746 452.412 223.98 452.412C223.213 452.412 222.591 453.114 222.591 453.979C222.591 454.845 223.213 455.547 223.98 455.547Z" fill="white"/>
<path d="M268.5 455.547C269.267 455.547 269.889 454.845 269.889 453.979C269.889 453.114 269.267 452.412 268.5 452.412C267.733 452.412 267.112 453.114 267.112 453.979C267.112 454.845 267.733 455.547 268.5 455.547Z" fill="white"/>
<path d="M313.02 455.547C313.787 455.547 314.409 454.845 314.409 453.979C314.409 453.114 313.787 452.412 313.02 452.412C312.254 452.412 311.632 453.114 311.632 453.979C311.632 454.845 312.254 455.547 313.02 455.547Z" fill="white"/>
<path d="M402.056 455.547C402.822 455.547 403.444 454.845 403.444 453.979C403.444 453.114 402.822 452.412 402.056 452.412C401.289 452.412 400.667 453.114 400.667 453.979C400.667 454.845 401.289 455.547 402.056 455.547Z" fill="white"/>
<path d="M446.576 455.547C447.343 455.547 447.965 454.845 447.965 453.979C447.965 453.114 447.343 452.412 446.576 452.412C445.809 452.412 445.188 453.114 445.188 453.979C445.188 454.845 445.809 455.547 446.576 455.547Z" fill="white"/>
<path d="M491.091 455.547C491.858 455.547 492.48 454.845 492.48 453.979C492.48 453.114 491.858 452.412 491.091 452.412C490.324 452.412 489.703 453.114 489.703 453.979C489.703 454.845 490.324 455.547 491.091 455.547Z" fill="white"/>
<path d="M1.38853 505.817C2.15539 505.817 2.77706 505.115 2.77706 504.249C2.77706 503.384 2.15539 502.682 1.38853 502.682C0.621666 502.682 0 503.384 0 504.249C0 505.115 0.621666 505.817 1.38853 505.817Z" fill="white"/>
<path d="M90.4241 505.817C91.1909 505.817 91.8126 505.115 91.8126 504.249C91.8126 503.384 91.1909 502.682 90.4241 502.682C89.6572 502.682 89.0355 503.384 89.0355 504.249C89.0355 505.115 89.6572 505.817 90.4241 505.817Z" fill="white"/>
<path d="M134.944 505.817C135.711 505.817 136.333 505.115 136.333 504.249C136.333 503.384 135.711 502.682 134.944 502.682C134.177 502.682 133.556 503.384 133.556 504.249C133.556 505.115 134.177 505.817 134.944 505.817Z" fill="white"/>
<path d="M179.464 505.817C180.231 505.817 180.853 505.115 180.853 504.249C180.853 503.384 180.231 502.682 179.464 502.682C178.698 502.682 178.076 503.384 178.076 504.249C178.076 505.115 178.698 505.817 179.464 505.817Z" fill="white"/>
<path d="M223.98 505.817C224.746 505.817 225.368 505.115 225.368 504.249C225.368 503.384 224.746 502.682 223.98 502.682C223.213 502.682 222.591 503.384 222.591 504.249C222.591 505.115 223.213 505.817 223.98 505.817Z" fill="white"/>
<path d="M268.5 505.817C269.267 505.817 269.889 505.115 269.889 504.249C269.889 503.384 269.267 502.682 268.5 502.682C267.733 502.682 267.112 503.384 267.112 504.249C267.112 505.115 267.733 505.817 268.5 505.817Z" fill="white"/>
<path d="M313.02 505.817C313.787 505.817 314.409 505.115 314.409 504.249C314.409 503.384 313.787 502.682 313.02 502.682C312.254 502.682 311.632 503.384 311.632 504.249C311.632 505.115 312.254 505.817 313.02 505.817Z" fill="white"/>
<path d="M357.535 505.817C358.302 505.817 358.924 505.115 358.924 504.249C358.924 503.384 358.302 502.682 357.535 502.682C356.768 502.682 356.147 503.384 356.147 504.249C356.147 505.115 356.768 505.817 357.535 505.817Z" fill="white"/>
<path d="M402.056 505.817C402.822 505.817 403.444 505.115 403.444 504.249C403.444 503.384 402.822 502.682 402.056 502.682C401.289 502.682 400.667 503.384 400.667 504.249C400.667 505.115 401.289 505.817 402.056 505.817Z" fill="white"/>
<path d="M446.576 505.817C447.343 505.817 447.965 505.115 447.965 504.249C447.965 503.384 447.343 502.682 446.576 502.682C445.809 502.682 445.188 503.384 445.188 504.249C445.188 505.115 445.809 505.817 446.576 505.817Z" fill="white"/>
<path d="M491.091 505.817C491.858 505.817 492.48 505.115 492.48 504.249C492.48 503.384 491.858 502.682 491.091 502.682C490.324 502.682 489.703 503.384 489.703 504.249C489.703 505.115 490.324 505.817 491.091 505.817Z" fill="white"/>
<g clip-path="url(#clip1_258_90)">
<path d="M359.214 352.504C296.472 370.869 288.196 296.877 339.913 299.943C353.155 328.252 287.183 328.444 269.252 324.939C234.295 310.572 266.72 261.377 296.627 271.074C311.88 315.946 122.073 315.774 174.156 248.669C190.85 210.566 321.861 171.337 252.412 241.486C62.4751 383.357 -20.1095 216.952 183.555 151.954" stroke="white" stroke-width="3" stroke-linecap="round"/>
</g>
<path d="M182 52L133.97 150.102L361.03 206.172L182 52Z" fill="#473B37"/>
<path d="M181.667 59.3348C185.902 59.3348 189.335 55.902 189.335 51.6674C189.335 47.4328 185.902 44 181.667 44C177.433 44 174 47.4328 174 51.6674C174 55.902 177.433 59.3348 181.667 59.3348Z" fill="#FFF278"/>
<ellipse cx="232.5" cy="128" rx="13.5" ry="6" fill="#5E97EB"/>
<path d="M136.779 156.327C141.014 156.327 144.447 152.894 144.447 148.66C144.447 144.425 141.014 140.992 136.779 140.992C132.545 140.992 129.112 144.425 129.112 148.66C129.112 152.894 132.545 156.327 136.779 156.327Z" fill="#FFF278"/>
<path d="M352.163 209.302C356.398 209.302 359.831 205.869 359.831 201.634C359.831 197.4 356.398 193.967 352.163 193.967C347.929 193.967 344.496 197.4 344.496 201.634C344.496 205.869 347.929 209.302 352.163 209.302Z" fill="#FFF278"/>
<path d="M238 127C254 123.407 260 123.407 269 123.407" stroke="white" stroke-width="3" stroke-linecap="round"/>
<path d="M291.267 122.993L296.967 123.332" stroke="white" stroke-width="12" stroke-miterlimit="10" stroke-linecap="round"/>
<path d="M322.512 124.85L328.202 125.188" stroke="white" stroke-width="12" stroke-miterlimit="10" stroke-linecap="round"/>
<path d="M299.565 127.994C301.908 128.133 303.92 126.347 304.06 124.004C304.199 121.661 302.412 119.648 300.069 119.509C297.726 119.37 295.714 121.156 295.575 123.499C295.435 125.843 297.222 127.855 299.565 127.994Z" fill="black"/>
<path d="M330.86 129.854C333.203 129.993 335.215 128.207 335.354 125.864C335.494 123.521 333.707 121.508 331.364 121.369C329.021 121.23 327.009 123.016 326.869 125.359C326.73 127.703 328.517 129.715 330.86 129.854Z" fill="black"/>
<path d="M357 454V402.998H401.698V352.002H446.39V301H492.482" stroke="#473B37" stroke-width="3" stroke-miterlimit="10" stroke-linecap="round" stroke-linejoin="round"/>
<defs>
<clipPath id="clip0_258_90">
<rect width="424" height="115" fill="white" transform="translate(56 316)"/>
</clipPath>
<clipPath id="clip1_258_90">
<rect width="290.09" height="216.53" fill="white" transform="translate(57.1436 158.838) rotate(-3.79492)"/>
</clipPath>
</defs>
</svg>
