<svg width="222" height="94" viewBox="0 0 222 94" fill="none" xmlns="http://www.w3.org/2000/svg">
<g clip-path="url(#clip0_258_257)">
<path d="M60.0241 94H37.0804C35.1332 94 33.5507 92.4245 33.5507 90.4859C33.5507 88.5474 35.1332 86.9719 37.0804 86.9719H60.0241C61.9713 86.9719 63.5538 88.5474 63.5538 90.4859C63.5538 92.4245 61.9713 94 60.0241 94Z" fill="white"/>
<path d="M6.48897 94H3.54749C1.60022 94 0.0177002 92.4245 0.0177002 90.4859C0.0177002 88.5474 1.60022 86.9719 3.54749 86.9719H6.48897C8.43624 86.9719 10.0188 88.5474 10.0188 90.4859C10.0188 92.4245 8.43624 94 6.48897 94Z" fill="white"/>
<path d="M27.0793 94H24.1378C22.1906 94 20.608 92.4245 20.608 90.4859C20.608 88.5474 22.1906 86.9719 24.1378 86.9719H27.0793C29.0266 86.9719 30.6091 88.5474 30.6091 90.4859C30.6091 92.4245 29.0266 94 27.0793 94Z" fill="white"/>
<path d="M95.3219 94H79.4379C77.4906 94 75.9081 92.4245 75.9081 90.4859C75.9081 88.5474 77.4906 86.9719 79.4379 86.9719H95.3219C97.2692 86.9719 98.8517 88.5474 98.8517 90.4859C98.8517 92.4245 97.2692 94 95.3219 94Z" fill="white"/>
<path d="M120.619 94H112.382C110.435 94 108.853 92.4245 108.853 90.4859C108.853 88.5474 110.435 86.9719 112.382 86.9719H120.619C122.566 86.9719 124.148 88.5474 124.148 90.4859C124.148 92.4245 122.566 94 120.619 94Z" fill="white"/>
<path d="M146.58 94C146.345 94 146.115 93.9766 145.886 93.9298C145.662 93.8888 145.439 93.8185 145.227 93.7306C145.015 93.6428 144.809 93.5374 144.615 93.4085C144.427 93.2797 144.245 93.1332 144.08 92.9693C143.921 92.8111 143.774 92.6296 143.645 92.4363C143.515 92.2489 143.409 92.0439 143.315 91.8331C143.233 91.6164 143.162 91.3997 143.115 91.1712C143.068 90.9487 143.045 90.7144 143.045 90.486C143.045 89.5607 143.427 88.6587 144.08 88.0028C144.245 87.8388 144.427 87.6924 144.615 87.5635C144.809 87.4405 145.015 87.3293 145.227 87.2414C145.439 87.1536 145.662 87.0833 145.886 87.0423C147.033 86.8139 148.251 87.1828 149.075 88.0028C149.734 88.6587 150.11 89.5607 150.11 90.486C150.11 90.7144 150.086 90.9487 150.039 91.1712C149.992 91.3997 149.928 91.6164 149.839 91.8331C149.751 92.0439 149.639 92.2489 149.51 92.4363C149.386 92.6296 149.233 92.8111 149.075 92.9693C148.416 93.6252 147.504 94 146.58 94Z" fill="white"/>
<path d="M217.758 94C216.835 94 215.923 93.6252 215.264 92.9693C215.105 92.8111 214.958 92.6296 214.829 92.4363C214.699 92.2489 214.593 92.0439 214.499 91.8331C214.417 91.6164 214.346 91.3997 214.299 91.1712C214.252 90.9487 214.229 90.7144 214.229 90.486C214.229 89.5607 214.611 88.6529 215.264 88.0028C216.088 87.1828 217.305 86.8139 218.453 87.0423C218.676 87.0833 218.9 87.1536 219.111 87.2414C219.323 87.3293 219.529 87.4405 219.723 87.5635C219.912 87.6924 220.094 87.8388 220.259 88.0028C220.912 88.6587 221.294 89.5607 221.294 90.486C221.294 90.7144 221.271 90.9487 221.223 91.1712C221.176 91.3997 221.112 91.6164 221.023 91.8331C220.935 92.0439 220.823 92.2489 220.694 92.4363C220.57 92.6296 220.417 92.8111 220.259 92.9693C220.094 93.1332 219.912 93.2797 219.723 93.4085C219.529 93.5374 219.323 93.6428 219.111 93.7306C218.9 93.8185 218.676 93.8888 218.453 93.9298C218.223 93.9766 217.994 94 217.758 94Z" fill="white"/>
<path d="M198.35 94C198.115 94 197.886 93.9766 197.656 93.9298C197.433 93.8888 197.209 93.8185 196.997 93.7306C196.786 93.6428 196.58 93.5374 196.386 93.4085C196.197 93.2797 196.015 93.1332 195.85 92.9693C195.691 92.8111 195.544 92.6296 195.415 92.4363C195.285 92.2489 195.18 92.0439 195.091 91.8331C195.003 91.6164 194.932 91.3997 194.885 91.1712C194.844 90.9487 194.821 90.7144 194.821 90.486C194.821 89.5607 195.197 88.6587 195.85 88.0028C196.015 87.8388 196.197 87.6924 196.386 87.5635C196.58 87.4405 196.786 87.3293 196.997 87.2414C197.209 87.1536 197.433 87.0833 197.656 87.0423C198.803 86.8139 200.021 87.1828 200.845 88.0028C201.498 88.6529 201.88 89.5607 201.88 90.486C201.88 90.7144 201.857 90.9487 201.81 91.1712C201.763 91.3997 201.698 91.6164 201.61 91.8331C201.521 92.0439 201.41 92.2489 201.28 92.4363C201.151 92.6296 201.004 92.8111 200.845 92.9693C200.186 93.6252 199.274 94 198.35 94Z" fill="white"/>
<path d="M185.92 94H169.447C167.5 94 165.918 92.4245 165.918 90.4859C165.918 88.5474 167.5 86.9719 169.447 86.9719H185.92C187.867 86.9719 189.45 88.5474 189.45 90.4859C189.45 92.4245 187.867 94 185.92 94Z" fill="white"/>
<path d="M57.6708 40.1184C57.6708 17.9625 87.1739 0 123.56 0C159.946 0 189.449 17.9625 189.449 40.1184" fill="#FFF278"/>
<path d="M0 89.5137V53.0265H6.9125V68.0899H20.5257V53.0265H27.4382V89.5137H20.5257V74.3449H6.9125V89.5137H0Z" fill="#473B37"/>
<path d="M48.4816 90.2458C45.4813 90.2458 42.9046 89.7011 40.7573 88.6059C38.61 87.5107 36.9687 85.947 35.8332 83.9147C34.6978 81.8824 34.1331 79.4753 34.1331 76.6934V53.0265H41.0456V76.8984C41.0456 79.1239 41.6809 80.8751 42.9575 82.1636C44.2341 83.452 46.0755 84.0904 48.4816 84.0904C50.8878 84.0904 52.7291 83.4462 54.0058 82.1636C55.2824 80.8809 55.9177 79.1239 55.9177 76.8984V53.0265H62.8302V76.6934C62.8302 79.4753 62.2596 81.8824 61.13 83.9147C59.9946 85.947 58.3533 87.5107 56.206 88.6059C54.0587 89.7011 51.482 90.2458 48.4816 90.2458Z" fill="#473B37"/>
<path d="M68.4838 89.5137V83.4696H73.3019V59.0765H68.4838V53.0323H87.3328C89.5683 53.0323 91.5097 53.4072 93.1687 54.151C94.8277 54.9006 96.1161 55.9607 97.0456 57.3312C97.9692 58.7016 98.434 60.3474 98.434 62.2566V62.7779C98.434 64.4471 98.1222 65.8117 97.4927 66.8717C96.8632 67.9318 96.122 68.7459 95.269 69.3198C94.4159 69.8938 93.6041 70.3037 92.8334 70.5439V71.4809C93.5982 71.6918 94.4395 72.0783 95.3454 72.6523C96.2514 73.2262 97.028 74.052 97.6751 75.1297C98.3222 76.2073 98.6458 77.6129 98.6458 79.3523V79.8736C98.6458 81.8883 98.1751 83.616 97.2339 85.0626C96.2926 86.5034 94.9925 87.6103 93.3335 88.3717C91.6745 89.1389 89.7448 89.5196 87.5505 89.5196H68.4896L68.4838 89.5137ZM80.2144 68.0372H86.6033C88.0329 68.0372 89.2095 67.6741 90.139 66.942C91.0626 66.2099 91.5274 65.2026 91.5274 63.9199V63.3987C91.5274 62.0809 91.0744 61.0619 90.1684 60.3474C89.2624 59.6328 88.0741 59.2814 86.6092 59.2814H80.2203V68.0372H80.2144ZM80.2144 83.2588H86.7092C88.2094 83.2588 89.4213 82.8956 90.3508 82.1636C91.2744 81.4315 91.7392 80.389 91.7392 79.0361V78.5148C91.7392 77.1619 91.2862 76.1194 90.3802 75.3874C89.4742 74.6553 88.2506 74.2922 86.7151 74.2922H80.2203V83.2588H80.2144Z" fill="#473B37"/>
<path d="M117.018 90.2458C114.189 90.2458 111.694 89.7422 109.529 88.7348C107.364 87.7275 105.67 86.2867 104.452 84.4067C103.229 82.5326 102.617 80.2719 102.617 77.6305V76.1722H109.423V77.6305C109.423 79.8209 110.106 81.4608 111.465 82.556C112.824 83.6512 114.677 84.1959 117.012 84.1959C119.348 84.1959 121.154 83.7273 122.325 82.7903C123.495 81.8532 124.078 80.6526 124.078 79.1942C124.078 78.1869 123.79 77.3728 123.213 76.7461C122.636 76.1195 121.801 75.6099 120.701 75.2058C119.601 74.8076 118.265 74.4328 116.695 74.0872L115.489 73.8295C112.977 73.2731 110.818 72.5703 109.023 71.7211C107.223 70.8719 105.846 69.7474 104.888 68.3594C103.929 66.9713 103.446 65.1616 103.446 62.9361C103.446 60.7105 103.976 58.8129 105.04 57.2258C106.105 55.6445 107.605 54.4263 109.541 53.5771C111.476 52.7278 113.753 52.3003 116.371 52.3003C118.989 52.3003 121.319 52.7454 123.36 53.6298C125.401 54.5141 127.008 55.8377 128.178 57.5889C129.349 59.3459 129.931 61.5422 129.931 64.1835V65.7473H123.125V64.1835C123.125 62.7955 122.854 61.671 122.313 60.8218C121.772 59.9726 120.995 59.3459 119.983 58.9476C118.971 58.5494 117.765 58.3503 116.371 58.3503C114.277 58.3503 112.73 58.7427 111.735 59.5216C110.741 60.3064 110.241 61.3723 110.241 62.7252C110.241 63.6271 110.476 64.3944 110.947 65.021C111.418 65.6477 112.124 66.169 113.065 66.5848C114.006 67.0006 115.212 67.3637 116.677 67.68L117.883 67.9377C120.501 68.4941 122.778 69.2086 124.713 70.0754C126.649 70.9422 128.161 72.0901 129.243 73.5132C130.326 74.9364 130.867 76.7637 130.867 78.9893C130.867 81.2148 130.302 83.1709 129.167 84.8518C128.031 86.5385 126.425 87.8563 124.348 88.8109C122.272 89.7656 119.819 90.2458 116.995 90.2458H117.018Z" fill="#473B37"/>
<path d="M143.356 89.5137V59.2814H132.673V53.0265H160.946V59.2814H150.263V89.5137H143.351H143.356Z" fill="#473B37"/>
<path d="M165.659 89.5137V53.0265H189.22V59.2814H172.571V67.9845H187.755V74.2394H172.571V83.2588H189.538V89.5137H165.665H165.659Z" fill="#473B37"/>
<path d="M194.668 89.5137V53.0265H210.587C212.893 53.0265 214.899 53.4247 216.605 54.2271C218.317 55.0295 219.641 56.154 220.582 57.6181C221.524 59.0765 221.994 60.7983 221.994 62.7779V63.4046C221.994 65.595 221.471 67.3637 220.423 68.7224C219.376 70.0753 218.082 71.071 216.547 71.6918V72.6289C217.941 72.6991 219.023 73.1735 219.794 74.0637C220.559 74.9481 220.947 76.1253 220.947 77.5836V89.5196H214.035V78.5734C214.035 77.7418 213.817 77.0624 213.381 76.5411C212.946 76.0199 212.223 75.7622 211.211 75.7622H201.574V89.5254H194.662L194.668 89.5137ZM201.58 69.4955H209.852C211.493 69.4955 212.776 69.0504 213.699 68.1661C214.623 67.2817 215.088 66.1045 215.088 64.6462V64.1249C215.088 62.6666 214.635 61.4953 213.729 60.6051C212.823 59.7207 211.528 59.2756 209.852 59.2756H201.58V69.4897V69.4955Z" fill="#473B37"/>
<path d="M105.741 37.19H102.381C100.434 37.19 98.8517 35.6146 98.8517 33.676C98.8517 31.7374 100.434 30.162 102.381 30.162H105.741C107.688 30.162 109.27 31.7374 109.27 33.676C109.27 35.6146 107.688 37.19 105.741 37.19Z" fill="white"/>
<path d="M126.502 37.19H123.142C121.195 37.19 119.613 35.6146 119.613 33.676C119.613 31.7374 121.195 30.162 123.142 30.162H126.502C128.449 30.162 130.031 31.7374 130.031 33.676C130.031 35.6146 128.449 37.19 126.502 37.19Z" fill="white"/>
<path d="M107.429 36.3116C108.81 36.3116 109.929 35.1972 109.929 33.8225C109.929 32.4478 108.81 31.3334 107.429 31.3334C106.048 31.3334 104.929 32.4478 104.929 33.8225C104.929 35.1972 106.048 36.3116 107.429 36.3116Z" fill="#473B37"/>
<path d="M128.22 36.3116C129.6 36.3116 130.72 35.1972 130.72 33.8225C130.72 32.4478 129.6 31.3334 128.22 31.3334C126.839 31.3334 125.719 32.4478 125.719 33.8225C125.719 35.1972 126.839 36.3116 128.22 36.3116Z" fill="#473B37"/>
</g>
<defs>
<clipPath id="clip0_258_257">
<rect width="222" height="94" fill="white"/>
</clipPath>
</defs>
</svg>
