<svg width="260" height="58" viewBox="0 0 260 58" fill="none" xmlns="http://www.w3.org/2000/svg">
<g clip-path="url(#clip0_258_285)">
<path d="M101.643 18.1474C103.292 19.1101 104.615 20.5425 105.445 22.2615C106.459 24.2358 106.964 26.432 106.914 28.6508C106.984 30.849 106.432 33.0225 105.321 34.9207C104.371 36.6853 102.862 38.0846 101.03 38.899C99.0522 39.8877 96.8647 40.3845 94.6535 40.3472C93.3515 40.3533 92.0607 40.1074 90.8521 39.6231C89.6499 39.2476 88.557 38.5854 87.6677 37.6936V50.2375H80.5544V17.197H86.6845L87.2975 19.8465C89.9964 17.6784 92.9379 16.5923 96.0029 16.5923C97.9966 16.5322 99.9622 17.0742 101.643 18.1474ZM97.7185 33.1022C98.3272 32.559 98.8078 31.8877 99.1258 31.1364C99.4438 30.3852 99.5913 29.5727 99.5575 28.7576C99.5888 27.1043 98.9732 25.5042 97.842 24.298C97.3084 23.7351 96.6602 23.2933 95.9412 23.0023C95.2223 22.7113 94.4493 22.5779 93.6744 22.6112C92.435 22.5526 91.2035 22.8373 90.1157 23.434C89.1115 23.981 88.2989 24.8224 87.787 25.8449V31.2755C88.1524 32.3078 88.8406 33.195 89.7495 33.8057C90.7786 34.4498 91.9708 34.7854 93.1848 34.7725C94.8531 34.8106 96.4736 34.2135 97.7185 33.1022Z" fill="#080808"/>
<path d="M111.081 22.3644C112.189 20.608 113.753 19.1859 115.607 18.2502C117.663 17.2217 119.931 16.6851 122.23 16.6827C124.535 16.6271 126.815 17.167 128.85 18.2502C130.681 19.2253 132.209 20.6857 133.265 22.4713C134.308 24.3094 134.857 26.3868 134.857 28.5005C134.857 30.6142 134.308 32.6917 133.265 34.5297C132.24 36.3401 130.704 37.8083 128.85 38.7508C126.799 39.7914 124.53 40.3287 122.23 40.3183C119.94 40.3529 117.673 39.8573 115.607 38.8702C113.728 37.9709 112.155 36.5405 111.081 34.756C110.036 32.8528 109.489 30.7169 109.489 28.5458C109.489 26.3747 110.036 24.2387 111.081 22.3355V22.3644ZM118.318 32.8554C119.297 34.0608 120.647 34.5462 122.243 34.5462C122.979 34.5624 123.711 34.4198 124.387 34.1281C125.064 33.8363 125.67 33.4022 126.164 32.8554C127.17 31.638 127.694 30.0934 127.636 28.5149C127.636 26.7047 127.145 25.2579 126.164 24.1745C125.669 23.5879 125.049 23.1204 124.348 22.807C123.648 22.4936 122.886 22.3423 122.119 22.3644C121.384 22.3613 120.656 22.5097 119.981 22.8007C119.305 23.0916 118.697 23.5187 118.195 24.0552C117.186 25.3178 116.665 26.9004 116.726 28.5149C116.671 30.114 117.242 31.6714 118.318 32.8554Z" fill="#080808"/>
<path d="M146.393 0.0576172V39.73H139.284V0.0576172H146.393Z" fill="#080808"/>
<path d="M175.574 17.7853L161.109 50.3404H154.242L159.636 38.6438L149.351 17.7853H157.443L163.331 30.8065L169.214 17.7853H175.574Z" fill="#080808"/>
<path d="M202.793 17.7853V39.7301C202.803 41.768 202.158 43.7553 200.954 45.3994C199.694 47.1296 198.003 48.5009 196.05 49.3777C193.937 50.3523 191.634 50.8469 189.307 50.8259C187.694 50.8351 186.087 50.6317 184.526 50.2211C183.391 49.8313 182.29 49.3469 181.235 48.7729C180.149 48.0986 179.124 47.3319 178.17 46.4813L182.338 41.6596C183.241 42.5377 184.275 43.2705 185.403 43.8319C186.592 44.3916 187.89 44.6797 189.204 44.6753C190.814 44.7129 192.396 44.2485 193.73 43.3464C194.325 42.9281 194.806 42.3665 195.127 41.7137C195.448 41.0609 195.6 40.3377 195.569 39.6108V36.4758C194.773 37.6685 193.672 38.6261 192.38 39.2487C190.77 40.0034 189.007 40.3752 187.229 40.3349C185.24 40.3565 183.286 39.8129 181.593 38.7674C179.86 37.7459 178.422 36.2913 177.421 34.5463C176.397 32.7428 175.849 30.7082 175.829 28.6343C175.79 26.5164 176.341 24.4294 177.421 22.6071C178.462 20.8206 179.938 19.3272 181.712 18.2667C183.361 17.2207 185.277 16.6762 187.229 16.6993C188.892 16.6742 190.549 16.9187 192.133 17.4233C193.402 17.7985 194.547 18.5092 195.445 19.4804L196.182 17.7936L202.793 17.7853ZM195.561 31.2756V25.8491C195.091 24.7676 194.271 23.8761 193.232 23.3188C192.069 22.6742 190.76 22.3412 189.431 22.3521C187.799 22.3401 186.222 22.9438 185.016 24.0429C184.407 24.5851 183.926 25.2557 183.608 26.0063C183.29 26.757 183.143 27.5688 183.177 28.3833C183.172 29.2068 183.329 30.0232 183.642 30.7853C183.954 31.5474 184.414 32.2401 184.995 32.8232C185.577 33.4063 186.268 33.8682 187.03 34.1824C187.791 34.4965 188.607 34.6565 189.431 34.6532C192.249 34.5668 194.351 33.4602 195.561 31.2756Z" fill="#080808"/>
<path d="M208.68 22.3685C209.783 20.5807 211.346 19.1227 213.206 18.1475C215.263 17.1209 217.531 16.5844 219.83 16.58C222.134 16.5243 224.414 17.0642 226.449 18.1475C228.28 19.1237 229.807 20.5838 230.864 22.3685C231.904 24.2071 232.453 26.2831 232.456 28.3957C232.512 30.5169 231.96 32.6099 230.864 34.427C229.875 36.2652 228.33 37.7429 226.449 38.648C224.399 39.6886 222.129 40.2259 219.83 40.2155C217.54 40.2515 215.272 39.7558 213.206 38.7674C211.326 37.8703 209.752 36.4394 208.68 34.6532C207.578 32.843 207.084 30.7942 207.084 28.2599C207.065 26.1868 207.618 24.1485 208.68 22.3685ZM215.794 32.8596C216.773 34.065 218.122 34.5463 219.715 34.5463C220.451 34.5628 221.183 34.4208 221.86 34.1297C222.538 33.8387 223.144 33.4056 223.639 32.8596C224.644 31.6414 225.167 30.097 225.108 28.5191C225.108 26.7089 224.619 25.2621 223.639 24.1787C223.145 23.6322 222.538 23.1983 221.861 22.9066C221.184 22.6149 220.452 22.472 219.715 22.4878C218.98 22.4835 218.252 22.6316 217.577 22.9226C216.902 23.2136 216.295 23.6413 215.794 24.1787C214.687 25.2607 214.198 26.8282 214.198 28.5191C214.259 30.0979 214.818 31.6169 215.794 32.8596Z" fill="#080808"/>
<path d="M257.601 18.5217C259.07 19.7272 259.683 21.2988 259.807 23.2283V39.7465H252.574V25.8777C252.451 23.711 251.354 22.6263 249.283 22.6235C247.691 22.6235 246.341 23.3476 245.358 24.9151C244.375 26.4826 243.889 28.4121 243.889 30.7037V39.7548H236.776V17.81H243.276L243.766 21.307C244.588 19.8943 245.775 18.728 247.201 17.9293C248.78 17.0798 250.556 16.6638 252.348 16.7238C254.417 16.6991 256.252 17.2875 257.601 18.5217Z" fill="#080808"/>
<path d="M50.147 17.4275C49.5103 17.0711 48.7929 16.8839 48.0632 16.8839C47.3336 16.8839 46.6161 17.0711 45.9794 17.4275L36.4141 22.9733L29.9179 26.5896L20.3525 32.1396C19.7151 32.4937 18.998 32.6795 18.2688 32.6795C17.5396 32.6795 16.8224 32.4937 16.185 32.1396L8.58208 27.795C7.96325 27.4408 7.4464 26.9327 7.08167 26.3201C6.71694 25.7074 6.51671 25.0109 6.50034 24.298V15.7365C6.49177 15.0185 6.68161 14.312 7.04893 13.695C7.41625 13.0779 7.94679 12.5743 8.58208 12.2395L16.0615 8.02257C16.6982 7.66619 17.4157 7.47907 18.1453 7.47907C18.875 7.47907 19.5925 7.66619 20.2292 8.02257L27.7127 12.2395C28.3302 12.5953 28.846 13.1037 29.2105 13.716C29.575 14.3284 29.7761 15.0241 29.7945 15.7365V21.2865L36.2948 17.5467V12.0009C36.3029 11.2824 36.1125 10.5757 35.7444 9.9586C35.3764 9.34151 34.845 8.83809 34.2089 8.50389L20.3525 0.543127C19.7159 0.186746 18.9984 -0.000366211 18.2688 -0.000366211C17.5391 -0.000366211 16.8217 0.186746 16.185 0.543127L2.08587 8.50389C1.44981 8.83809 0.918427 9.34151 0.550357 9.9586C0.182287 10.5757 -0.00816789 11.2824 8.46811e-06 12.0009V28.046C-0.00816789 28.7644 0.182287 29.4713 0.550357 30.0884C0.918427 30.7054 1.44981 31.2088 2.08587 31.543L16.185 39.4997C16.8217 39.8561 17.5391 40.0432 18.2688 40.0432C18.9984 40.0432 19.7159 39.8561 20.3525 39.4997L29.9179 34.0773L36.4141 30.3375L45.9794 24.911C46.6161 24.5547 47.3336 24.3676 48.0632 24.3676C48.7929 24.3676 49.5103 24.5547 50.147 24.911L57.6265 29.1321C58.2451 29.4866 58.7617 29.9948 59.1264 30.6074C59.4911 31.2201 59.6915 31.9164 59.7082 32.6291V41.1906C59.7173 41.9088 59.5276 42.6154 59.1603 43.2325C58.7929 43.8497 58.2621 44.3533 57.6265 44.6876L50.147 49.028C49.5103 49.3843 48.7929 49.5716 48.0632 49.5716C47.3336 49.5716 46.6161 49.3843 45.9794 49.028L38.5 44.8069C37.8809 44.4526 37.3636 43.9447 36.9983 43.3321C36.6329 42.7195 36.4317 42.0229 36.4141 41.3099V35.764L29.9179 39.4997V45.0496C29.9102 45.7675 30.1005 46.4737 30.4677 47.0905C30.8349 47.7074 31.3649 48.2112 31.9996 48.5466L46.1029 56.5034C46.7395 56.8598 47.457 57.0469 48.1866 57.0469C48.9163 57.0469 49.6338 56.8598 50.2705 56.5034L64.3696 48.5466C64.9881 48.1917 65.5049 47.6836 65.8702 47.0711C66.2355 46.4587 66.437 45.7625 66.4554 45.0496V29.0046C66.464 28.286 66.2738 27.579 65.9057 26.9619C65.5376 26.3447 65.0059 25.8414 64.3696 25.5076L50.147 17.4275Z" fill="#080808"/>
</g>
<defs>
<clipPath id="clip0_258_285">
<rect width="259.807" height="57.0382" fill="white"/>
</clipPath>
</defs>
</svg>
