<svg width="302" height="53" viewBox="0 0 302 53" fill="none" xmlns="http://www.w3.org/2000/svg">
<g clip-path="url(#clip0_258_295)">
<path fill-rule="evenodd" clip-rule="evenodd" d="M24.4415 19.9268C24.2959 20.0749 24.1051 20.1711 23.8991 20.1982C23.6472 20.1882 23.4092 20.0802 23.236 19.8961C20.7045 16.5429 18.8662 2.67637 24.3813 1.25673C30.4402 -0.211879 32.9416 8.38205 34.1525 12.543C34.2366 12.8321 34.3146 13.0994 34.387 13.3408C31.6737 11.7412 28.5484 10.9841 25.406 11.1659C25.0443 14.4282 24.8033 17.5702 24.6827 19.4129C24.6521 19.6035 24.5685 19.7816 24.4415 19.9268ZM30.5595 21.3464C30.4709 21.2538 30.4085 21.1387 30.3787 21.0142C30.3479 20.885 30.3479 20.7505 30.3787 20.6213C31.3431 16.5429 40.1131 5.72807 45.5077 9.80643C50.5672 13.6317 45.3938 21.0703 42.9415 24.5964C42.7794 24.83 42.6287 25.0466 42.494 25.2437C41.9714 22.1341 40.6056 19.2288 38.546 16.845C36.3083 18.2528 34.2396 19.6802 32.7264 20.7239C32.3241 21.0013 31.9609 21.2514 31.6445 21.4674L31.6068 21.4916C31.5803 21.5075 31.5531 21.5223 31.5254 21.5352C31.504 21.5453 31.4823 21.5547 31.4603 21.5624L31.4374 21.5712C31.3211 21.6113 31.1966 21.6279 31.0718 21.6184C31.0414 21.6125 31.0116 21.6055 30.982 21.5972L30.9444 21.586C30.9061 21.573 30.869 21.5583 30.8329 21.5411C30.7316 21.4928 30.6391 21.4273 30.5595 21.3464ZM103.131 27.4793C103.131 18.0233 107.29 12.1324 115.457 12.1324C123.624 12.1324 127.693 18.0233 127.693 27.4793C127.693 36.9346 123.564 42.7655 115.457 42.7655C107.35 42.7655 103.131 36.9346 103.131 27.4793ZM108.194 27.4793C108.194 31.1648 109.038 38.0222 115.457 38.0222C121.876 38.0222 122.66 31.1947 122.66 27.4793C122.66 23.7632 121.816 16.845 115.457 16.845C109.098 16.845 108.194 23.7933 108.194 27.4793ZM84.6564 12.7366L90.473 33.8535L95.8074 12.7366H100.81L93.3059 42.1613H88.4236L82.0646 21.8905L75.6453 42.1613H70.7329L63.2286 12.7366H68.2616L73.596 33.8535L79.4125 12.7366H84.6564ZM153.882 21.2863C153.882 14.9722 149.965 12.7366 142.882 12.7366H132.545V42.1613H137.608V30.1374H142.641L148.337 42.1613H153.943L148.036 29.5332C151.833 28.506 153.882 25.9688 153.882 21.2863ZM142.641 25.4248H137.608V17.51H142.641C146.8 17.51 148.94 18.6275 148.94 21.4674C148.94 24.3073 146.921 25.4248 142.641 25.4248ZM159.277 12.7366H164.31V37.2974H178.776V42.1613H159.277V12.7366ZM191.886 12.7366H183.538V42.1613H191.886C200.686 42.1613 206.292 36.5724 206.292 27.5395C206.292 18.5066 200.686 12.7366 191.886 12.7366ZM192.278 37.2974H188.631V17.5702H192.278C197.642 17.5702 201.289 21.7695 201.289 27.5395C201.289 33.3094 197.823 37.2974 192.278 37.2974ZM230.643 22.5548C229.648 19.7758 228.262 17.0869 223.5 17.0869C218.708 17.0869 215.634 21.4066 215.634 27.3584C215.634 33.3094 218.558 37.7808 223.5 37.7808C228.443 37.7808 230.04 34.8199 230.703 32.1919L235.344 33.7327C234.018 39.3514 229.467 42.6446 223.5 42.6446C215.634 42.6446 210.541 36.4516 210.541 27.3584C210.541 18.2652 215.634 12.2533 223.5 12.2533C229.106 12.2533 233.837 15.3345 235.344 21.0443L230.643 22.5548ZM250.745 12.1324C242.577 12.1324 238.388 18.0233 238.388 27.4793C238.388 36.9346 242.638 42.7655 250.745 42.7655C258.852 42.7655 262.98 36.9346 262.98 27.4793C262.98 18.0233 258.912 12.1324 250.745 12.1324ZM250.745 38.0222C244.325 38.0222 243.481 31.1648 243.481 27.4793C243.481 23.7933 244.386 16.845 250.745 16.845C257.104 16.845 257.947 23.7632 257.947 27.4793C257.947 31.1947 257.164 38.0222 250.745 38.0222ZM268.285 12.7366H273.378V42.1582H268.285V12.7366ZM296.282 12.7366V32.5844L284.921 12.7366H279.888V42.1613H284.921V22.9779L296.282 42.1613H301.376V12.7366H296.282ZM34.3267 26.7542L33.9952 26.9955L33.8144 27.3584C33.8117 27.3861 33.8104 27.4138 33.8101 27.4416L33.8111 27.4911C33.8177 27.6445 33.8599 27.7962 33.9349 27.9325C34.0585 28.103 34.2411 28.2216 34.4473 28.2647L35.3285 28.5372L35.3782 28.5532C37.1614 29.1025 39.7054 29.8878 42.3132 30.8024C41.7827 33.8882 40.3693 36.7537 38.2446 39.0493C38.4598 39.0357 38.6954 39.0221 38.9483 39.0082C43.1947 38.7675 52.3387 38.2475 52.1681 31.8898C51.9873 26.2101 38.0638 24.9716 34.3267 26.7542ZM31.7873 33.6076C31.8132 33.6145 31.8385 33.6233 31.8636 33.6336C31.8916 33.6447 31.9193 33.6577 31.9458 33.6722C35.713 35.4848 44.3022 46.6018 39.0884 50.892C34.1796 54.9311 28.1224 48.1241 25.2925 44.9445C25.1165 44.7469 24.9531 44.5633 24.8033 44.3968C27.909 44.6104 31.0119 43.9403 33.7541 42.4634C32.7246 39.4535 31.6408 36.6881 30.9661 34.9682L30.9609 34.954L30.8609 34.6991C30.7937 34.5522 30.772 34.3897 30.7967 34.2323C30.8039 34.1858 30.8154 34.1396 30.8307 34.0949L30.8479 34.0523L30.8633 34.0206L30.8838 33.9822C30.9001 33.9538 30.9181 33.926 30.938 33.9C31.0122 33.8027 31.1095 33.7242 31.2225 33.6722C31.3343 33.6145 31.4582 33.5834 31.5842 33.5816C31.6532 33.5804 31.7213 33.5892 31.7873 33.6076ZM25.1046 36.089C25.0868 36.0141 25.0572 35.9434 25.0174 35.8779C24.9907 35.8344 24.9593 35.7936 24.9238 35.7564C24.8793 35.6933 24.8223 35.6407 24.7568 35.6017C24.7151 35.577 24.6699 35.5582 24.6224 35.5453C24.439 35.4697 24.2332 35.4697 24.0498 35.5453C23.8584 35.6036 23.6967 35.7335 23.5978 35.9075C22.6936 37.4787 21.1265 40.1976 19.3785 43.0068C16.4983 41.8021 14.0354 39.7741 12.2962 37.1766L12.217 37.6267L12.1865 37.7992C11.4404 41.9954 9.82468 51.082 16.0934 52.4025C21.6689 53.49 25.9485 40.1369 25.1046 36.089ZM19.1374 31.92C19.0954 32.0397 19.0343 32.1518 18.9566 32.2521C16.2743 35.4848 3.19462 40.4088 0.60277 35.364C-2.26493 29.6436 5.86418 25.1811 9.56685 23.1484C9.75545 23.0451 9.93254 22.9478 10.0961 22.8569C9.19824 25.8567 9.15644 29.0488 9.97558 32.0711C13.2605 31.7086 16.3346 31.2249 18.2032 30.9228C18.4055 30.9074 18.6072 30.9605 18.7757 31.0739C18.9495 31.1736 19.079 31.3352 19.1374 31.527C19.1681 31.6563 19.1681 31.7907 19.1374 31.92ZM18.0826 25.0318C18.2162 25.0596 18.3551 25.0377 18.4744 24.9716C18.594 24.902 18.6888 24.7964 18.7456 24.6695C18.8057 24.5934 18.85 24.5061 18.8759 24.4129C18.9018 24.3196 18.9087 24.2217 18.8963 24.1255C18.8826 24.0234 18.8524 23.9249 18.8074 23.8341C18.7843 23.7874 18.7575 23.7426 18.727 23.7001C18.6966 23.6582 18.6625 23.6187 18.6251 23.5821C17.2989 22.3737 15.0086 20.259 12.7181 17.9024C14.5254 15.338 17.0539 13.3709 19.9813 12.2533L19.4497 12.0279C15.5496 10.3664 6.95447 6.70515 4.30971 12.5554C1.98913 17.7814 13.9236 24.9716 18.0826 25.0318Z" fill="black"/>
</g>
<defs>
<clipPath id="clip0_258_295">
<rect width="301.376" height="51.9613" fill="white" transform="translate(0 0.803711)"/>
</clipPath>
</defs>
</svg>
